<svg id="Layer_2" data-name="Layer 2" xmlns="http://www.w3.org/2000/svg" viewBox="0 0 50 50"><defs><style>.cls-1{fill:#66b033;}.cls-2{fill:#fff;}</style></defs><title>icono bamapit cuadrado 50x50 1</title><rect class="cls-1" width="50" height="50"/><path class="cls-2" d="M18.42,47.63s-.14-.06-.14-.07a.69.69,0,0,1-.24-.63V38.84c0-.23,0-.46.06-.69A1.6,1.6,0,0,1,18.84,37a11.49,11.49,0,0,1,1.49-.83l2.13-1.07A2.11,2.11,0,0,1,22.8,35a.16.16,0,0,0,.12-.16c0-.11,0-.22,0-.33,0-1.94,0-3.88,0-5.82a1.12,1.12,0,0,0-.1-.39s-.08-.05-.12-.05c-.79,0-1.58.06-2.36.12s-1.35.12-2,.2c-.4,0-.8.12-1.21.19l-1.26.21c-.27.05-.54.13-.82.2l-1.1.28-1,.27c-.39.12-.77.24-1.14.38s-.88.34-1.3.53-.86.44-1.28.65a.48.48,0,0,1-.17.05s-.05,0-.08,0a.2.2,0,0,1,0-.08c.09-.07.2-.14.29-.22a11.56,11.56,0,0,1,2.1-1.35,12.45,12.45,0,0,1,1.85-.77c.58-.19,1.15-.37,1.73-.54s1.06-.3,1.59-.41,1.33-.24,2-.34,1.2-.16,1.81-.21,1.47-.08,2.2-.11c.16,0,.19,0,.2-.18,0-.32,0-.65,0-1A2.64,2.64,0,0,0,22.24,25a.66.66,0,0,0-.57-.3A28.08,28.08,0,0,1,17.6,24a13.33,13.33,0,0,1-2.81-1,6.64,6.64,0,0,1-3-3.08c-.53-1.12-1-2.25-1.56-3.38A12.36,12.36,0,0,0,8.5,13.74a9.62,9.62,0,0,0-2.68-2.19,1.71,1.71,0,0,1-.23-.13s0-.06-.06-.09l.08-.05a36.81,36.81,0,0,1,4.31-.82,15.75,15.75,0,0,1,3.07,0,11.8,11.8,0,0,1,2.7.57,9.69,9.69,0,0,1,2.42,1.23.63.63,0,0,1,.27.76,9.51,9.51,0,0,0-.29,2.43A8.16,8.16,0,0,0,18.55,18c.15.42.31.84.47,1.26l0,.13,0,0-.1-.07a28.58,28.58,0,0,0-3.84-3.45c-.5-.37-1-.71-1.56-1.07a.12.12,0,0,0-.08,0,1.38,1.38,0,0,0-.2,0,.44.44,0,0,0,.07.17l1,.85c1.07.92,2.12,1.85,3.13,2.85a41.41,41.41,0,0,1,2.85,3.07c.64.79,1.26,1.6,1.89,2.4a2.06,2.06,0,0,0,1.15.79,1.78,1.78,0,0,0,1.37-.34,4.77,4.77,0,0,0,1.17-1.2,39.07,39.07,0,0,1,3.61-4.1c.62-.62,1.24-1.24,1.88-1.84s1.18-1.08,1.78-1.61l.46-.43a2,2,0,0,0,.16-.24.08.08,0,0,0,0-.08h-.07l-.12.07c-.78.58-1.59,1.13-2.35,1.74s-1.4,1.21-2.1,1.82c-.2.18-.38.37-.57.56a.13.13,0,0,1-.1,0,.61.61,0,0,1,0-.13,16.4,16.4,0,0,0,1-4.08,8.7,8.7,0,0,0,0-2c0-.16-.05-.32-.08-.47a.41.41,0,0,1,.22-.51l.62-.35a11,11,0,0,1,2.65-.94,13.64,13.64,0,0,1,3.43-.28,21.92,21.92,0,0,1,4.82.83l.51.13.12.05-.11.1c-.55.36-1.12.7-1.65,1.09A10.34,10.34,0,0,0,37.83,15a16,16,0,0,0-1.51,2.71c-.42.94-.84,1.88-1.29,2.81a6.4,6.4,0,0,1-2.17,2.56,8.38,8.38,0,0,1-3.14,1.32,21.66,21.66,0,0,1-3.22.3c-.36,0-.73.07-1.1.09a1.11,1.11,0,0,0-.86.6,1.37,1.37,0,0,0-.2.77c0,.3,0,.6,0,.91,0,.15,0,.17.19.18.75,0,1.5.05,2.25.11s1.55.17,2.32.29c.61.09,1.22.21,1.83.35s1.11.29,1.66.45,1.09.32,1.62.52a13.14,13.14,0,0,1,1.34.57,11.18,11.18,0,0,1,1.77,1l.82.63a.56.56,0,0,1,.05.08s-.07,0-.1,0L37.5,31c-.43-.2-.87-.43-1.31-.62s-.79-.32-1.19-.46-.58-.18-.87-.27l-1-.29L32,29.09c-.29-.07-.58-.15-.87-.2s-.87-.14-1.3-.21l-.58-.09a33.31,33.31,0,0,0-3.74-.34l-1,0c-.17,0-.2,0-.2.19v3a.22.22,0,0,0,.13.22l1.94,1c.81.44,1.63.87,2.44,1.32a2.9,2.9,0,0,1,.79.6,1.15,1.15,0,0,1,.26.4A2.73,2.73,0,0,1,30.11,36c0,2.8,0,5.59,0,8.39a.48.48,0,0,1-.36.44,1.43,1.43,0,0,1-.82,0,.27.27,0,0,1-.2-.28c0-2.23-.07-4.47-.1-6.7,0-.68,0-1.36-.05-2.05a1.06,1.06,0,0,0-.63-1L25.7,33.65,24.47,33c-.1,0-.16,0-.16.1,0,1.14,0,2.28,0,3.43,0,.54,0,1.09,0,1.64,0,1.14,0,2.28,0,3.42a.4.4,0,0,1-.39.44,4.84,4.84,0,0,1-.76,0c-.17,0-.22-.11-.22-.28,0-1.06,0-2.12,0-3.18,0-.7,0-1.41,0-2.12,0-.12-.05-.15-.16-.09a16.16,16.16,0,0,1-2.22,1,1.38,1.38,0,0,0-1,1,1.91,1.91,0,0,0-.05.48c0,.22,0,.43,0,.64,0,2.49,0,5,0,7.48,0,.12,0,.24,0,.36a.3.3,0,0,1-.16.31,1.14,1.14,0,0,1-.25.06A1.41,1.41,0,0,1,18.42,47.63Z"/><path class="cls-2" d="M20.28,2.44l.28.17A29.47,29.47,0,0,1,23.2,4.43a19.11,19.11,0,0,1,2.5,2.26A12.84,12.84,0,0,1,28,9.92a9.35,9.35,0,0,1,.94,4.68,10.32,10.32,0,0,1-.46,2.34A15.5,15.5,0,0,1,27.12,20a19.45,19.45,0,0,1-1.66,2.54L24.34,24l-.06.06s-.07,0-.09,0,0-.06,0-.08c0-.3.05-.61.07-.91.05-.81.11-1.62.15-2.44a47.3,47.3,0,0,0,0-4.91,33.47,33.47,0,0,0-.52-4.36.85.85,0,0,0,0-.23c0-.05-.1-.07-.15-.1s-.07.1-.06.14a44.43,44.43,0,0,1,.12,6.32c-.06,1-.13,2.08-.25,3.11s-.28,2.05-.42,3.07l0,.2L23,24a.16.16,0,0,1-.09,0c-.24-.26-.48-.52-.71-.79-.44-.54-.89-1.07-1.3-1.62a12,12,0,0,1-1.56-2.69,8.66,8.66,0,0,1-.64-4.5,8.09,8.09,0,0,1,.51-2c.34-.86.7-1.7,1-2.56a10.82,10.82,0,0,0,.71-2.5,8.68,8.68,0,0,0,0-2.22,10.35,10.35,0,0,0-.59-2.33,2.44,2.44,0,0,0-.1-.24Z"/></svg>